<svg width="320" height="320" viewBox="0 0 320 320" fill="none" xmlns="http://www.w3.org/2000/svg">
<g clip-path="url(#clip0_7_157)">
<path d="M213.333 0H106.667C47.7563 0 0 47.7563 0 106.667V213.333C0 272.244 47.7563 320 106.667 320H213.333C272.244 320 320 272.244 320 213.333V106.667C320 47.7563 272.244 0 213.333 0Z" fill="#F07167"/>
<path d="M115 36C115 29.9249 110.075 25 104 25C97.9249 25 93 29.9249 93 36V54C93 60.0751 97.9249 65 104 65C110.075 65 115 60.0751 115 54V36Z" fill="white"/>
<path d="M227 36C227 29.9249 222.075 25 216 25C209.925 25 205 29.9249 205 36V54C205 60.0751 209.925 65 216 65C222.075 65 227 60.0751 227 54V36Z" fill="white"/>
<rect x="45" y="51" width="231" height="229" rx="64" fill="white"/>
<rect x="125" y="154" width="70" height="22.9489" rx="11.4745" fill="#F07167"/>
<rect x="176" y="201" width="70" height="22.9489" rx="11.4745" fill="#F07167"/>
<rect x="75" y="107" width="70" height="22.9489" rx="11.4745" fill="#F07167"/>
</g>
<defs>
<clipPath id="clip0_7_157">
<rect width="320" height="320" fill="white"/>
</clipPath>
</defs>
</svg>
